<?xml version="1.0"?>
<svg xmlns="http://www.w3.org/2000/svg" xmlns:xlink="http://www.w3.org/1999/xlink" xmlns:svgjs="http://svgjs.com/svgjs" version="1.1" width="512" height="512" x="0" y="0" viewBox="0 0 460 460" style="enable-background:new 0 0 512 512" xml:space="preserve" class=""><g transform="matrix(0.81,0,0,0.81,134.35073072552674,43.700000000000045)"><path xmlns="http://www.w3.org/2000/svg" d="m254.773438 166.636719-84.683594-93.636719c-1.132813-1.265625-2.75-1.992188-4.449219-2h-31.636719v-65c0-3.3125-2.6875-6-6-6s-6 2.6875-6 6v65h-31.636718c-1.699219.007812-3.316407.734375-4.449219 2l-84.523438 93.632812c-.953125 1.121094-1.4492185 2.558594-1.39062475 4.03125v283.335938c-.05859375 1.570312.51953175 3.101562 1.60156275 4.242188 1.0625 1.121093 2.535156 1.753906 4.082031 1.757812h244.636719c3.3125 0 6-2.6875 6-6v-283.335938c0-1.488281-.554688-2.921874-1.550781-4.027343zm-242.769532 281.363281v-275.023438l81.023438-89.976562h28.976562v56.5c-19.4375 3.128906-33.210937 20.667969-31.640625 40.292969 1.570313 19.625 17.953125 34.75 37.640625 34.75s36.074219-15.125 37.640625-34.75c1.570313-19.625-12.203125-37.164063-31.640625-40.292969v-56.5h28.972656l81.34375 89.953125v275.046875zm113.871094-296.898438c1.371094.527344 2.886719.527344 4.257812 0 13.757813 1.140626 24.167969 12.929688 23.59375 26.722657-.570312 13.792969-11.917968 24.679687-25.722656 24.679687-13.804687 0-25.152344-10.886718-25.722656-24.679687-.574219-13.792969 9.835938-25.582031 23.59375-26.722657zm0 0" fill="#d79516" data-original="#000000" style="" class=""/><path xmlns="http://www.w3.org/2000/svg" d="m184.003906 381h-112c-3.3125 0-6 2.6875-6 6s2.6875 6 6 6h112c3.3125 0 6-2.6875 6-6s-2.6875-6-6-6zm0 0" fill="#d79516" data-original="#000000" style="" class=""/><path xmlns="http://www.w3.org/2000/svg" d="m184.003906 411h-112c-3.3125 0-6 2.6875-6 6s2.6875 6 6 6h112c3.3125 0 6-2.6875 6-6s-2.6875-6-6-6zm0 0" fill="#d79516" data-original="#000000" style="" class=""/><path xmlns="http://www.w3.org/2000/svg" d="m128.003906 336.96875c-9.890625-.011719-17.910156-8.027344-17.917968-17.921875 0-3.3125-2.6875-6-6-6-3.316407 0-6 2.6875-6 6 .015624 14.207031 10.003906 26.449219 23.917968 29.316406v10.636719c0 3.3125 2.6875 6 6 6s6-2.6875 6-6v-10.636719c15.042969-3.082031 25.3125-17.050781 23.765625-32.328125-1.546875-15.28125-14.410156-26.90625-29.765625-26.910156-9.898437 0-17.921875-8.023438-17.921875-17.917969 0-9.898437 8.023438-17.921875 17.921875-17.921875 9.898438 0 17.921875 8.023438 17.921875 17.921875 0 3.3125 2.683594 6 6 6 3.3125 0 6-2.6875 6-6-.019531-14.207031-10.007812-26.449219-23.921875-29.316406v-8.890625c0-3.3125-2.6875-6-6-6s-6 2.6875-6 6v8.890625c-15.042968 3.078125-25.316406 17.050781-23.769531 32.328125 1.550781 15.28125 14.414063 26.90625 29.769531 26.90625 9.898438 0 17.921875 8.023438 17.921875 17.921875s-8.023437 17.921875-17.921875 17.921875zm0 0" fill="#d79516" data-original="#000000" style="" class=""/></g></svg>
