<?xml version="1.0"?>
<svg xmlns="http://www.w3.org/2000/svg" xmlns:xlink="http://www.w3.org/1999/xlink" xmlns:svgjs="http://svgjs.com/svgjs" version="1.1" width="512" height="512" x="0" y="0" viewBox="0 0 128 128" style="enable-background:new 0 0 512 512" xml:space="preserve" class=""><g><title xmlns="http://www.w3.org/2000/svg">PRICE TAG</title><path xmlns="http://www.w3.org/2000/svg" d="M81.463,52.647l-10.9-5.813a1.25,1.25,0,0,0-1.176,2.206L79.625,54.5V87h-4.75a1.25,1.25,0,0,0,0,2.5h4.75v5.125H48.375V89.5h4.75a1.25,1.25,0,0,0,0-2.5h-4.75V54.5L62.75,46.834v3.78a3.562,3.562,0,1,0,2.5,0V39.575a6.207,6.207,0,0,1,6.2-6.2H75a1.25,1.25,0,0,0,0-2.5H71.449a8.709,8.709,0,0,0-8.7,8.7V44L46.537,52.647a1.251,1.251,0,0,0-.662,1.1V95.875a1.25,1.25,0,0,0,1.25,1.25h33.75a1.25,1.25,0,0,0,1.25-1.25V53.75A1.251,1.251,0,0,0,81.463,52.647ZM64,55a1.063,1.063,0,1,1,1.062-1.062A1.064,1.064,0,0,1,64,55Z" fill="#d7a226" data-original="#000000" style="" class=""/><path xmlns="http://www.w3.org/2000/svg" d="M59.125,88.25a1.25,1.25,0,0,0,1.25,1.25h7.25a1.25,1.25,0,0,0,0-2.5h-7.25A1.25,1.25,0,0,0,59.125,88.25Z" fill="#d7a226" data-original="#000000" style="" class=""/></g></svg>
