<?xml version="1.0" standalone="no"?>
<!DOCTYPE svg PUBLIC "-//W3C//DTD SVG 20010904//EN"
 "http://www.w3.org/TR/2001/REC-SVG-20010904/DTD/svg10.dtd">
<svg version="1.0" xmlns="http://www.w3.org/2000/svg"
 width="500.000000pt" height="500.000000pt" viewBox="0 0 500.000000 500.000000"
 preserveAspectRatio="xMidYMid meet">

<g transform="translate(0.000000,500.000000) scale(0.100000,-0.100000)"
fill="#000000" stroke="none">
<path d="M2762 4188 c-16 -16 -15 -33 4 -49 12 -10 20 -10 35 0 22 13 116 4
254 -25 775 -162 1381 -808 1500 -1598 58 -392 2 -765 -170 -1122 -150 -311
-377 -571 -668 -765 -331 -219 -672 -322 -1067 -322 -315 0 -558 55 -835 188
-379 182 -691 487 -879 861 -79 156 -129 292 -121 330 6 35 -14 60 -40 50 -26
-10 -30 -38 -8 -55 11 -9 28 -41 38 -71 99 -304 313 -628 550 -833 299 -259
601 -404 970 -467 481 -82 972 19 1384 286 447 290 745 731 858 1269 24 118
27 150 27 345 0 231 -7 301 -55 492 -152 617 -609 1130 -1202 1352 -119 44
-301 91 -422 107 -53 7 -93 18 -98 26 -10 16 -39 17 -55 1z"/>
<path d="M2290 4153 c-114 -15 -297 -86 -395 -153 -65 -45 -173 -148 -213
-204 -23 -32 2 -11 80 66 148 148 258 211 438 252 132 30 322 34 305 5 -10
-15 12 -10 25 6 7 9 10 19 6 23 -9 8 -193 12 -246 5z"/>
<path d="M1670 4076 c-91 -72 -228 -225 -293 -327 -49 -78 -86 -172 -98 -254
-14 -91 -40 -153 -93 -223 -57 -75 -91 -132 -170 -282 -64 -122 -66 -124 -60
-75 11 95 36 170 96 297 41 88 64 151 73 205 17 93 20 232 5 217 -20 -20 -201
-416 -215 -472 -19 -72 -19 -182 0 -255 8 -32 15 -65 15 -74 0 -9 -31 -96 -69
-192 -38 -97 -77 -202 -87 -233 -9 -31 -21 -55 -26 -52 -5 3 -6 9 -3 14 2 4
-7 70 -21 146 -15 81 -29 204 -33 294 l-8 155 -1 -155 c-1 -160 1 -173 37
-378 l22 -122 -25 -102 c-25 -97 -34 -202 -18 -211 4 -3 8 19 9 49 5 143 134
535 275 835 l50 107 103 41 c56 23 109 41 118 41 34 0 107 35 206 98 58 38
136 86 174 107 113 66 92 69 -134 24 -177 -36 -239 -57 -310 -105 -28 -19 -53
-34 -56 -34 -11 0 86 123 163 207 l86 93 58 0 c81 0 202 24 360 72 155 46 233
83 291 135 40 36 75 90 65 100 -19 20 -387 -107 -630 -216 -38 -17 -71 -30
-73 -28 -8 9 189 187 223 203 22 9 124 45 228 79 145 49 213 78 295 126 58 34
144 84 191 111 47 27 90 54 95 60 15 15 -145 -66 -220 -112 -127 -78 -182
-103 -360 -162 -99 -33 -195 -68 -213 -79 -19 -11 -37 -17 -42 -14 -5 3 -88
-72 -185 -166 -96 -94 -175 -169 -175 -166 0 3 45 66 101 139 80 106 118 168
184 303 46 94 100 189 120 213 52 60 39 69 -25 18z m-103 -217 c-52 -108 -84
-159 -166 -264 -57 -71 -107 -134 -111 -139 -13 -13 16 102 40 165 32 81 100
176 201 283 51 53 93 95 95 93 3 -2 -24 -64 -59 -138z m554 -138 c-17 -30 -84
-79 -153 -110 -118 -54 -350 -112 -498 -125 -59 -6 -63 -5 -46 9 11 8 24 15
29 15 5 0 82 29 171 64 204 81 446 163 489 165 14 1 16 -3 8 -18z m-998 -203
c-5 -107 -29 -197 -75 -275 -47 -80 -94 -214 -104 -298 -8 -73 -19 -53 -29 56
-9 100 6 158 91 340 37 79 77 168 90 197 13 28 25 52 27 52 2 0 2 -33 0 -72z
m487 -232 c0 -6 -141 -87 -226 -129 -39 -20 -112 -47 -162 -61 -50 -14 -107
-35 -126 -47 -22 -13 -36 -16 -36 -9 0 15 141 80 260 120 127 42 151 65 41 39
-46 -10 -91 -29 -206 -86 l-70 -35 40 42 c72 74 198 124 391 154 49 8 90 14
92 15 1 1 2 -1 2 -3z"/>
<path d="M1400 3679 c-33 -68 -54 -115 -45 -104 24 30 117 216 111 222 -2 3
-32 -50 -66 -118z"/>
<path d="M1825 3618 c-44 -17 -136 -50 -205 -74 -151 -52 -137 -57 27 -9 122
35 216 70 268 98 51 28 -1 19 -90 -15z"/>
<path d="M1016 3281 c-29 -56 -76 -202 -75 -230 0 -9 10 18 22 59 13 41 37
104 55 139 18 35 31 68 29 75 -2 6 -16 -13 -31 -43z"/>
<path d="M2290 4086 c-245 -89 -480 -209 -530 -272 -8 -10 8 -2 37 18 88 63
278 151 488 228 50 18 94 37 100 42 17 15 -29 7 -95 -16z"/>
<path d="M1385 2944 c-33 -25 -73 -52 -90 -61 -119 -63 -345 -270 -426 -390
-49 -71 -74 -122 -65 -130 2 -2 27 7 55 21 28 15 51 22 51 17 0 -13 -78 -375
-95 -442 -19 -71 -19 -89 -1 -89 16 0 20 9 36 95 19 102 12 95 95 95 l74 0 10
-37 c5 -21 16 -62 23 -92 7 -30 19 -56 26 -59 18 -6 15 25 -13 130 -25 94 -95
414 -95 434 0 6 12 17 27 25 52 27 176 128 222 181 58 65 234 324 229 338 -2
5 -30 -11 -63 -36z m-56 -125 c-35 -51 -89 -120 -119 -153 -51 -55 -241 -206
-260 -206 -4 0 -32 -16 -60 -35 -29 -20 -55 -34 -57 -32 -7 8 41 82 100 155
33 40 96 103 141 140 150 126 304 237 314 227 2 -2 -25 -45 -59 -96z m-350
-562 c17 -76 31 -145 31 -153 0 -11 -16 -14 -65 -14 -51 0 -65 3 -65 15 0 8
14 76 30 150 17 74 30 138 30 142 0 23 12 -19 39 -140z"/>
<path d="M1165 2689 c-100 -70 -265 -209 -265 -224 0 -4 26 14 58 40 31 25
100 77 152 114 94 68 142 111 123 111 -5 0 -36 -19 -68 -41z"/>
<path d="M1170 2914 c-50 -22 -129 -86 -174 -141 l-40 -48 60 55 c32 31 89 76
127 99 82 53 89 62 27 35z"/>
<path d="M783 2675 c0 -33 2 -45 4 -27 2 18 2 45 0 60 -2 15 -4 0 -4 -33z"/>
<path d="M733 2660 c0 -30 2 -43 4 -27 2 15 2 39 0 55 -2 15 -4 2 -4 -28z"/>
<path d="M741 2584 c0 -11 3 -14 6 -6 3 7 2 16 -1 19 -3 4 -6 -2 -5 -13z"/>
<path d="M1172 2449 l-32 -10 2 -282 c3 -243 5 -282 18 -282 12 0 16 17 18 82
l3 83 44 30 44 30 32 -100 c34 -109 52 -141 67 -125 7 7 -5 51 -34 128 l-45
118 26 31 c64 76 85 181 49 249 -26 52 -108 72 -192 48z m149 -48 c39 -39 40
-105 3 -179 -26 -52 -115 -142 -140 -142 -11 0 -14 31 -14 165 0 185 -1 184
78 185 35 0 49 -6 73 -29z"/>
<path d="M1525 2450 c-64 -26 -107 -121 -113 -252 -8 -159 27 -281 88 -313 67
-35 136 -4 179 80 25 47 26 58 26 205 0 138 -2 160 -22 202 -33 71 -98 103
-158 78z m100 -54 c43 -46 59 -123 53 -263 -6 -133 -29 -196 -80 -217 -97 -41
-152 43 -153 234 0 124 22 208 65 251 39 40 74 38 115 -5z"/>
<path d="M1777 2453 c-4 -3 -7 -136 -7 -295 0 -249 2 -288 15 -288 13 0 15 35
15 253 l1 252 68 -225 c43 -144 73 -225 81 -225 16 0 28 33 95 270 l54 190 0
-257 c1 -222 3 -258 16 -258 13 0 15 39 15 289 0 191 -4 292 -10 296 -19 12
-38 -14 -51 -68 -17 -73 -95 -347 -107 -377 -7 -18 -11 -21 -15 -10 -11 30
-37 119 -82 275 -52 176 -64 202 -88 178z"/>
<path d="M2302 2448 c-7 -7 -12 -18 -12 -26 0 -15 -108 -505 -116 -526 -7 -17
14 -32 27 -19 5 5 17 49 26 96 l16 87 77 0 77 0 18 -87 c19 -94 28 -114 46
-96 7 7 3 38 -15 104 -14 52 -43 176 -65 276 -46 214 -49 221 -79 191z m51
-185 c15 -71 30 -138 33 -150 6 -22 4 -23 -66 -23 -70 0 -72 1 -66 23 3 12 18
79 33 150 14 70 29 127 32 127 4 0 19 -57 34 -127z"/>
<path d="M2574 2446 c-4 -10 9 -55 31 -109 127 -314 118 -283 111 -380 -6 -82
-5 -88 11 -85 16 3 19 18 23 118 3 63 10 124 17 135 18 33 113 299 113 318 0
49 -27 -3 -80 -151 -54 -155 -65 -181 -74 -171 -7 8 -84 206 -101 259 -21 67
-41 92 -51 66z"/>
<path d="M3105 2451 c-29 -13 -62 -51 -79 -92 -43 -102 -41 -331 4 -418 21
-42 63 -71 102 -71 33 0 85 34 101 67 22 41 26 108 7 108 -8 0 -16 -9 -18 -20
-8 -59 -26 -94 -57 -110 -28 -16 -35 -16 -60 -4 -16 8 -38 30 -49 49 -19 31
-21 51 -21 185 1 129 4 157 22 200 25 61 61 90 97 81 38 -9 58 -47 64 -121 3
-46 9 -65 18 -65 10 0 14 15 14 53 0 66 -15 119 -39 141 -22 20 -78 29 -106
17z"/>
<path d="M3404 2450 c-32 -13 -70 -64 -91 -122 -25 -72 -25 -270 0 -343 30
-87 85 -126 157 -110 39 9 95 75 109 129 30 121 20 319 -20 385 -35 57 -100
83 -155 61z m101 -53 c41 -41 59 -116 58 -242 -1 -103 -13 -157 -45 -205 -63
-92 -166 -37 -185 98 -21 149 5 298 64 356 35 35 68 33 108 -7z"/>
<path d="M3659 2453 c0 -4 -1 -136 -1 -293 l-1 -285 94 0 c77 0 94 3 94 15 0
12 -15 15 -78 15 l-78 0 -2 274 c-1 209 -5 275 -14 278 -7 3 -13 1 -14 -4z"/>
<path d="M3975 2445 c-40 -20 -81 -84 -96 -150 -18 -81 -8 -279 18 -335 29
-65 56 -85 112 -85 103 0 152 80 159 265 7 175 -25 277 -95 306 -41 18 -60 17
-98 -1z m103 -44 c42 -42 57 -107 57 -241 -1 -158 -26 -228 -92 -250 -47 -16
-89 9 -116 68 -18 40 -22 66 -22 167 0 141 15 203 60 251 41 43 73 44 113 5z"/>
<path d="M4262 2449 l-32 -10 2 -282 c3 -243 5 -282 18 -282 12 0 16 17 18 82
l3 83 44 30 44 30 32 -102 c33 -106 52 -140 68 -123 6 6 -8 56 -35 128 l-45
118 27 32 c61 72 82 182 48 248 -26 52 -108 72 -192 48z m149 -48 c39 -39 40
-105 3 -179 -26 -52 -115 -142 -140 -142 -11 0 -14 31 -14 165 0 185 -1 184
78 185 35 0 49 -6 73 -29z"/>
<path d="M1830 1550 c0 -40 4 -70 10 -70 6 0 10 15 10 34 0 24 5 36 18 39 16
4 16 5 0 6 -12 1 -18 9 -18 25 0 15 7 26 18 29 10 3 6 5 -10 6 -28 1 -28 1
-28 -69z"/>
<path d="M2001 1548 c1 -40 4 -61 6 -45 2 15 8 27 12 27 4 0 12 -12 17 -27 8
-23 10 -15 9 42 0 65 -2 70 -22 73 -22 3 -23 1 -22 -70z m37 26 c-5 -28 -28
-29 -28 -1 0 13 3 27 7 31 10 10 25 -10 21 -30z"/>
<path d="M2181 1563 c-13 -67 -14 -98 -1 -65 12 27 40 29 40 2 0 -11 4 -20 9
-20 5 0 8 8 6 18 -17 82 -28 122 -35 122 -4 0 -12 -26 -19 -57z m29 -8 c0 -14
-4 -25 -10 -25 -11 0 -14 33 -3 43 11 11 13 8 13 -18z"/>
<path d="M2354 1606 c-3 -7 -4 -38 -2 -67 3 -51 4 -54 31 -55 25 -1 27 2 27
37 0 29 -4 39 -16 39 -13 0 -14 -3 -4 -15 12 -15 5 -55 -10 -55 -13 0 -22 56
-15 90 6 25 9 29 21 19 11 -9 14 -8 14 5 0 20 -38 22 -46 2z"/>
<path d="M2540 1565 c-6 -30 -9 -63 -7 -73 4 -13 5 -11 6 6 1 13 7 22 16 22 9
0 20 -10 25 -22 8 -17 9 -10 4 27 -13 111 -27 124 -44 40z m30 -16 c0 -10 -4
-19 -10 -19 -5 0 -10 12 -10 26 0 14 4 23 10 19 6 -3 10 -15 10 -26z"/>
<path d="M2712 1548 c1 -69 1 -70 7 -23 6 52 14 52 26 -2 13 -61 25 -46 23 29
-1 68 -2 70 -7 23 l-6 -50 -14 48 c-7 26 -18 47 -22 47 -5 0 -8 -33 -7 -72z"/>
<path d="M2904 1607 c-3 -8 -4 -39 -2 -68 3 -45 6 -54 22 -54 11 0 21 7 23 15
4 13 3 13 -6 0 -10 -13 -12 -13 -21 0 -11 17 -13 70 -4 94 5 14 9 14 22 4 13
-11 14 -10 10 2 -6 20 -37 25 -44 7z"/>
<path d="M3078 1613 c-2 -5 -1 -37 3 -73 l6 -65 1 73 c2 65 -1 85 -10 65z"/>
<path d="M3221 1563 c-13 -67 -14 -98 -1 -65 12 27 40 29 40 2 0 -11 4 -20 9
-20 5 0 8 8 6 18 -17 82 -28 122 -35 122 -4 0 -12 -26 -19 -57z m29 -8 c0 -14
-4 -25 -10 -25 -11 0 -14 33 -3 43 11 11 13 8 13 -18z"/>
<path d="M3394 1594 c-5 -20 -1 -31 20 -50 14 -14 26 -29 26 -34 0 -19 -22
-21 -35 -4 -8 11 -15 14 -15 8 0 -18 28 -37 45 -30 21 8 19 43 -5 63 -21 19
-26 48 -10 58 6 3 10 1 10 -4 0 -6 4 -11 10 -11 5 0 7 7 4 15 -10 25 -43 18
-50 -11z"/>
</g>
</svg>
