<svg id="Capa_1" enable-background="new 0 0 510.934 510.934" height="512" viewBox="0 0 510.934 510.934" width="512" xmlns="http://www.w3.org/2000/svg"><g><g><g id="XMLID_255_"><g><path d="m254.993 215.941c-.81 3.368.157 6.938 2.614 9.379 18.553 18.434 29.616 41.645 29.616 66.867 0 59.97-62.5 108.59-139.61 108.59s-139.61-48.62-139.61-108.59c0-25.164 11.012-48.325 29.487-66.739 2.52-2.512 3.473-6.198 2.55-9.635l-5.378-20.026c-1.29-4.82 2.34-9.55 7.33-9.55h210.51c4.91 0 8.52 4.58 7.38 9.36z" fill="#fec165"/></g></g><path d="m276.34 250.1h-125.879c-8.701 0-17.089 3.807-22.419 10.684-5.326 6.873-7.093 15.642-4.841 24.052l.974 3.628c1.774 6.606.305 13.641-3.894 19.04-10.301 13.243-17.518 27.953-21.311 43.308-1.911 7.739-11.651 10.311-17.046 4.442-16.341-17.777-25.959-39.546-25.959-63.066 0-25.164 11.012-48.325 29.487-66.739 2.52-2.512 3.473-6.199 2.55-9.635l-5.377-20.026c-1.29-4.82 2.34-9.55 7.33-9.55h-47.962c-4.99 0-8.62 4.73-7.33 9.55l5.378 20.026c.923 3.437-.03 7.123-2.55 9.635-18.475 18.414-29.487 41.575-29.487 66.739 0 46.169 37.056 85.591 89.291 101.3.001.006.002.011.003.017 15.611 4.693 32.575 7.273 50.317 7.273 77.11 0 139.61-48.62 139.61-108.59-.002-14.925-3.877-29.145-10.885-42.088z" fill="#fdb441"/><g id="XMLID_254_"><g><path d="m476.312 215.941c-.81 3.368.157 6.938 2.614 9.379 18.552 18.434 29.616 41.645 29.616 66.867 0 59.97-62.5 108.59-139.61 108.59s-139.61-48.62-139.61-108.59c0-25.164 11.012-48.325 29.487-66.739 2.52-2.512 3.473-6.198 2.55-9.635l-5.378-20.026c-1.29-4.82 2.34-9.55 7.33-9.55h210.51c4.91 0 8.52 4.58 7.38 9.36z" fill="#fec165"/></g></g><path d="m368.932 400.778c15.531 0 30.468-1.975 44.423-5.616 1.138-6.265 1.722-12.647 1.722-19.113 0-24.534-8.718-48.567-24.821-69.052-4.126-5.249-5.666-12.077-4.106-18.568l1.04-4.327c2-8.382.034-17.069-5.393-23.776-5.345-6.606-13.559-10.225-22.057-10.225h-119.537c-7.007 12.943-10.881 27.163-10.881 42.088 0 59.969 62.5 108.589 139.61 108.589z" fill="#fdb441"/><g id="XMLID_253_"><g><path d="m362.847 299.803c-.81 3.368.157 6.938 2.614 9.379 18.552 18.434 29.616 41.645 29.616 66.867 0 59.97-62.5 108.59-139.61 108.59s-139.61-48.62-139.61-108.59c0-25.164 11.012-48.325 29.487-66.739 2.52-2.512 3.473-6.198 2.55-9.635l-5.378-20.026c-1.29-4.82 2.34-9.55 7.33-9.55h210.51c4.91 0 8.52 4.58 7.38 9.36z" fill="#fece85"/></g></g><path d="m162.099 376.049c0-25.164 11.012-48.325 29.487-66.739 2.521-2.512 3.473-6.198 2.55-9.635l-5.377-20.026c-1.29-4.82 2.34-9.55 7.33-9.55h-46.242c-4.99 0-8.62 4.73-7.33 9.55l5.377 20.026c.923 3.437-.03 7.123-2.55 9.635-18.475 18.414-29.487 41.575-29.487 66.739 0 59.97 62.5 108.59 139.61 108.59 7.878 0 15.599-.516 23.121-1.491-66.104-8.569-116.489-53.255-116.489-107.099z" fill="#fec165"/><path d="m304.709 195.363c0 27.472-22.27 49.742-49.742 49.742s-49.742-22.27-49.742-49.742c0-22.155 32.353-66.485 44.874-82.813 2.455-3.201 7.28-3.201 9.735 0 12.522 16.328 44.875 60.658 44.875 82.813z" fill="#fee45a"/><path d="m281.727 218.345c0 14.779-11.981 26.76-26.76 26.76s-26.76-11.981-26.76-26.76c0-11.919 17.405-35.768 24.141-44.551 1.321-1.722 3.917-1.722 5.237 0 6.737 8.784 24.142 32.632 24.142 44.551z" fill="#f37c7c"/><path d="m413.062 111.506c0 27.472-22.27 49.742-49.742 49.742s-49.742-22.27-49.742-49.742c0-22.155 32.353-66.485 44.874-82.813 2.455-3.201 7.28-3.201 9.735 0 12.523 16.328 44.875 60.658 44.875 82.813z" fill="#fee45a"/><path d="m390.08 134.488c0 14.779-11.981 26.76-26.76 26.76s-26.76-11.981-26.76-26.76c0-11.919 17.405-35.768 24.141-44.551 1.321-1.722 3.917-1.722 5.237 0 6.737 8.784 24.142 32.632 24.142 44.551z" fill="#f37c7c"/><path d="m97.871 111.506c0 27.472 22.27 49.742 49.742 49.742s49.742-22.27 49.742-49.742c0-22.155-32.353-66.485-44.874-82.813-2.455-3.201-7.28-3.201-9.735 0-12.522 16.328-44.875 60.658-44.875 82.813z" fill="#fee45a"/><path d="m120.853 134.488c0 14.779 11.981 26.76 26.76 26.76s26.76-11.981 26.76-26.76c0-11.919-17.405-35.768-24.141-44.551-1.321-1.722-3.917-1.722-5.237 0-6.737 8.784-24.142 32.632-24.142 44.551z" fill="#f37c7c"/></g><g><path d="m369.809 302.935 5.218-21.728c1.086-4.523.057-9.212-2.823-12.865-2.88-3.652-7.198-5.747-11.85-5.747h-97.806v-10.507c27.991-3.722 49.661-27.733 49.661-56.724 0-23.355-29.086-64.769-46.423-87.376-2.601-3.392-6.544-5.337-10.819-5.337s-8.219 1.945-10.818 5.336c-17.338 22.608-46.424 64.022-46.424 87.377 0 29.048 21.754 53.094 49.823 56.745v10.487h-97.7c-4.73 0-9.094 2.153-11.973 5.906s-3.827 8.526-2.601 13.096l5.754 21.433c-21.108 20.593-32.675 46.36-32.675 73.023 0 11.22 2.026 22.326 6.022 33.009 1.451 3.881 5.771 5.85 9.652 4.397 3.879-1.452 5.848-5.773 4.396-9.652-3.365-8.997-5.071-18.334-5.071-27.754 0-22.925 10.289-45.243 29.034-63.136h108.19c4.143 0 7.5-3.358 7.5-7.5s-3.357-7.5-7.5-7.5h-105.389l-5.433-20.245.094-.078 210.541.002.052.108-4.854 20.212h-63.847c-4.143 0-7.5 3.358-7.5 7.5s3.357 7.5 7.5 7.5h66.806c18.745 17.892 29.034 40.211 29.034 63.136 0 55.74-59.266 101.088-132.113 101.088-45.884 0-87.83-17.869-112.206-47.799-2.615-3.21-7.338-3.696-10.552-1.079-3.212 2.616-3.694 7.34-1.079 10.552 27.195 33.391 73.489 53.326 123.837 53.326 38.951 0 75.646-11.856 103.326-33.385 28.236-21.961 43.787-51.333 43.787-82.703 0-26.704-11.601-52.51-32.771-73.118zm-107.261-66.89v-6.493c0-4.142-3.357-7.5-7.5-7.5s-7.5 3.358-7.5 7.5v6.563c-6.947-2.911-11.841-9.779-11.841-17.77 0-5.766 7.607-19.718 19.26-35.552 11.651 15.833 19.26 29.787 19.26 35.552 0 7.929-4.819 14.75-11.679 17.7zm-49.823-40.682c0-13.235 16.154-42.589 42.242-76.831 26.088 34.241 42.242 63.596 42.242 76.831 0 9.241-2.991 17.792-8.044 24.753.03-.588.062-1.176.062-1.771 0-12.911-13.971-33.835-25.69-49.116-2.06-2.687-5.184-4.228-8.569-4.228s-6.51 1.541-8.569 4.227c-11.72 15.281-25.69 36.206-25.69 49.116 0 .588.018 1.171.048 1.752-5.047-6.957-8.032-15.501-8.032-24.733z"/><path d="m478.162 219.078 5.218-21.728c1.086-4.523.057-9.212-2.823-12.865-2.88-3.652-7.198-5.747-11.85-5.747h-10.48c-4.143 0-7.5 3.358-7.5 7.5s3.357 7.5 7.5 7.5l10.516.002.052.108-4.854 20.212h-63.846c-4.143 0-7.5 3.358-7.5 7.5s3.357 7.5 7.5 7.5h66.806c18.745 17.893 29.034 40.211 29.034 63.136 0 19.086-7.024 37.688-20.313 53.794-13.197 15.995-31.874 28.824-54.011 37.102-3.88 1.451-5.849 5.772-4.398 9.652 1.128 3.014 3.987 4.875 7.026 4.875.872 0 1.761-.153 2.626-.477 24.598-9.197 45.458-23.584 60.327-41.604 15.533-18.826 23.743-40.729 23.743-63.341-.001-26.704-11.603-52.51-32.773-73.119z"/><path d="m330.267 214.06c-4.143 0-7.5 3.358-7.5 7.5s3.357 7.5 7.5 7.5h38.665c4.143 0 7.5-3.358 7.5-7.5s-3.357-7.5-7.5-7.5z"/><path d="m355.901 168.252v10.486h-21.844c-4.143 0-7.5 3.358-7.5 7.5s3.357 7.5 7.5 7.5h92.206c4.143 0 7.5-3.358 7.5-7.5s-3.357-7.5-7.5-7.5h-55.362v-10.507c27.991-3.722 49.661-27.733 49.661-56.725 0-23.358-29.086-64.771-46.423-87.375-2.601-3.392-6.544-5.338-10.819-5.338s-8.219 1.946-10.818 5.337c-17.338 22.608-46.424 64.022-46.424 87.376 0 29.048 21.754 53.095 49.823 56.746zm15-16.064v-6.494c0-4.142-3.357-7.5-7.5-7.5s-7.5 3.358-7.5 7.5v6.564c-6.947-2.911-11.841-9.779-11.841-17.77 0-5.764 7.607-19.716 19.261-35.552 11.651 15.834 19.259 29.787 19.259 35.552 0 7.929-4.818 14.751-11.679 17.7zm-7.581-117.512c26.088 34.238 42.242 63.593 42.242 76.83 0 9.236-2.988 17.784-8.037 24.743.03-.584.054-1.17.054-1.761 0-12.909-13.97-33.834-25.69-49.117-2.061-2.686-5.184-4.226-8.569-4.226 0 0-.001 0-.002 0-3.386 0-6.509 1.542-8.567 4.228-11.72 15.282-25.69 36.208-25.69 49.115 0 .589.02 1.173.049 1.754-5.046-6.959-8.032-15.503-8.032-24.736 0-13.234 16.153-42.588 42.242-76.83z"/><path d="m89.324 383.091c-22.137-8.277-40.813-21.107-54.011-37.102-13.289-16.105-20.313-34.707-20.313-53.793 0-22.924 10.289-45.243 29.034-63.136h66.806c4.143 0 7.5-3.358 7.5-7.5s-3.357-7.5-7.5-7.5h-63.846l-4.86-20.247.093-.076h133.75c4.143 0 7.5-3.358 7.5-7.5s-3.357-7.5-7.5-7.5h-20.944v-10.486c28.069-3.651 49.823-27.697 49.823-56.745 0-23.354-29.086-64.769-46.424-87.377-2.602-3.392-6.545-5.337-10.82-5.336-4.274 0-8.217 1.946-10.816 5.336-4.419 5.762-11.15 14.801-18.124 25.147-2.314 3.435-1.407 8.096 2.028 10.411 3.433 2.315 8.095 1.408 10.411-2.028 6.213-9.219 12.236-17.378 16.503-22.983 26.088 34.241 42.242 63.595 42.242 76.83 0 9.232-2.985 17.775-8.03 24.733.029-.58.047-1.164.047-1.751 0-12.908-13.971-33.833-25.689-49.114-2.06-2.687-5.183-4.228-8.568-4.229-.001 0-.001 0-.002 0-3.386 0-6.509 1.541-8.57 4.228-11.72 15.281-25.689 36.207-25.689 49.115 0 .599.037 1.189.068 1.78-5.057-6.963-8.05-15.517-8.05-24.762 0-4.143 1.657-12.228 9.554-27.221 1.931-3.665.524-8.201-3.141-10.131-3.668-1.932-8.201-.523-10.131 3.141-7.593 14.415-11.284 25.605-11.284 34.211 0 28.992 21.67 53.002 49.661 56.725v10.507h-97.805c-4.651 0-8.97 2.095-11.85 5.747-2.88 3.653-3.909 8.342-2.823 12.866l5.218 21.727c-21.17 20.609-32.772 46.415-32.772 73.118 0 22.612 8.21 44.515 23.743 63.341 14.869 18.021 35.729 32.407 60.327 41.604.866.324 1.753.477 2.626.477 3.039 0 5.898-1.861 7.026-4.875 1.451-3.88-.518-8.201-4.398-9.652zm58.288-284.154c11.653 15.836 19.261 29.788 19.261 35.552 0 7.992-4.894 14.859-11.841 17.77v-6.564c0-4.142-3.357-7.5-7.5-7.5s-7.5 3.358-7.5 7.5v6.494c-6.86-2.95-11.679-9.771-11.679-17.7.001-5.765 7.608-19.718 19.259-35.552z"/><path d="m142.002 214.06c-4.143 0-7.5 3.358-7.5 7.5s3.357 7.5 7.5 7.5h37.665c4.143 0 7.5-3.358 7.5-7.5s-3.357-7.5-7.5-7.5z"/></g></g></svg>